{
    "asset" : {
        "generator" : "Khronos glTF Blender I/O v1.6.16",
        "version" : "2.0"
    },
    "scene" : 0,
    "scenes" : [
        {
            "name" : "Scene",
            "nodes" : [
                0
            ]
        }
    ],
    "nodes" : [
        {
            "mesh" : 0,
            "name" : "Object_2.001",
            "rotation" : [
                -0.0035224680323153734,
                0.027785230427980423,
                -0.013227729126811028,
                -0.9995202422142029
            ],
            "translation" : [
                6.71999979019165,
                -1.8600000143051147,
                0.10999999940395355
            ]
        }
    ],
    "materials" : [
        {
            "doubleSided" : true,
            "name" : "Material",
            "pbrMetallicRoughness" : {
                "baseColorFactor" : [
                    0,
                    1,
                    0.05286070704460144,
                    1
                ],
                "metallicFactor" : 0,
                "roughnessFactor" : 0.4000000059604645
            }
        }
    ],
    "meshes" : [
        {
            "name" : "Object_0.001",
            "primitives" : [
                {
                    "attributes" : {
                        "POSITION" : 0,
                        "NORMAL" : 1,
                        "COLOR_0" : 2
                    },
                    "indices" : 3,
                    "material" : 0
                }
            ]
        }
    ],
    "accessors" : [
        {
            "bufferView" : 0,
            "componentType" : 5126,
            "count" : 1692,
            "max" : [
                -5.65643835067749,
                3.7505266666412354,
                0.6100000143051147
            ],
            "min" : [
                -7.770484924316406,
                0.2946721911430359,
                0
            ],
            "type" : "VEC3"
        },
        {
            "bufferView" : 1,
            "componentType" : 5126,
            "count" : 1692,
            "type" : "VEC3"
        },
        {
            "bufferView" : 2,
            "componentType" : 5123,
            "count" : 1692,
            "normalized" : true,
            "type" : "VEC4"
        },
        {
            "bufferView" : 3,
            "componentType" : 5123,
            "count" : 3708,
            "type" : "SCALAR"
        }
    ],
    "bufferViews" : [
        {
            "buffer" : 0,
            "byteLength" : 20304,
            "byteOffset" : 0
        },
        {
            "buffer" : 0,
            "byteLength" : 20304,
            "byteOffset" : 20304
        },
        {
            "buffer" : 0,
            "byteLength" : 13536,
            "byteOffset" : 40608
        },
        {
            "buffer" : 0,
            "byteLength" : 7416,
            "byteOffset" : 54144
        }
    ],
    "buffers" : [
        {
            "byteLength" : 61560,
            "uri" : "0final.bin"
        }
    ]
}
